# xmcd CD database file
#
# Track frame offsets:
#	150
#	22648
#	39557
#	55525
#	73344
#	90279
#	106091
#	126400
#	141865
#	156826
#	171885
#	188629
#
# Disc length: 2764 seconds
#
# Revision: 1
# Processed by: cddbd v1.5.2PL0 Copyright (c) Steve Scherf et al.
# Submitted via: CDex 1.70beta2
#
DISCID=940aca0c
DTITLE=Collin Raye - Never Going Back
DYEAR=2009
DGENRE=Country
TTITLE0=Never Going Back
TTITLE1=Take Care Of You
TTITLE2=Don't Tell Me Your Not In Love
TTITLE3=Without You (With Susan Ashton)
TTITLE4=Mid-Life Chrysler
TTITLE5=You Get Me
TTITLE6=Where It Leads
TTITLE7=The Cross
TTITLE8=Stuck In The Middle With You
TTITLE9=The Only Jesus
TTITLE10=I Love You This Much
TTITLE11=She's With Me
EXTD=YEAR: 2009
EXTT0=
EXTT1=
EXTT2=
EXTT3=
EXTT4=
EXTT5=
EXTT6=
EXTT7=
EXTT8=
EXTT9=
EXTT10=
EXTT11=
PLAYORDER=
